<svg width="74" height="74" viewBox="0 0 74 74" fill="none" xmlns="http://www.w3.org/2000/svg">
<path d="M13.3115 31.1594C15.7886 36.5489 13.3287 45.6927 13.3287 45.6927C13.3287 45.6927 8.91156 38.3637 6.88749 32.9869C4.86343 27.6101 7.42719 18.1536 7.42719 18.1536C7.42719 18.1536 10.8343 25.77 13.3115 31.1594Z" fill="url(#paint0_linear_16_26803)"/>
<path d="M16.1636 49.9851C21.6615 52.211 26.1385 60.5548 26.1385 60.5548C26.1385 60.5548 17.8985 58.2465 12.7391 55.7192C7.57966 53.1919 2.96401 44.5493 2.96401 44.5493C2.96401 44.5493 10.6656 47.7592 16.1636 49.9851Z" fill="url(#paint1_linear_16_26803)"/>
<path d="M31.2273 60.7938C36.6496 58.3895 45.7595 60.9724 45.7595 60.9724C45.7595 60.9724 38.3716 65.2904 32.968 67.2418C27.5644 69.1932 18.1433 66.5022 18.1433 66.5022C18.1433 66.5022 25.8049 63.1981 31.2273 60.7938Z" fill="url(#paint2_linear_16_26803)"/>
<path d="M49.5656 57.502C51.4867 51.8903 59.5724 46.9625 59.5724 46.9625C59.5724 46.9625 57.7194 55.3167 55.4788 60.6069C53.2383 65.8972 44.8618 70.9798 44.8618 70.9798C44.8618 70.9798 47.6445 63.1138 49.5656 57.502Z" fill="url(#paint3_linear_16_26803)"/>
<path d="M24.3403 16.1985C22.5183 21.8433 14.5205 26.9125 14.5205 26.9125C14.5205 26.9125 16.2262 18.527 18.3733 13.1982C20.5204 7.86933 28.8062 2.64007 28.8062 2.64007C28.8062 2.64007 26.1623 10.5538 24.3403 16.1985Z" fill="url(#paint4_linear_16_26803)"/>
<path d="M42.6071 12.7304C37.1649 15.0895 28.0769 12.4308 28.0769 12.4308C28.0769 12.4308 35.5004 8.17448 40.92 6.26808C46.3397 4.36169 55.7381 7.13095 55.7381 7.13095C55.7381 7.13095 48.0493 10.3712 42.6071 12.7304Z" fill="url(#paint5_linear_16_26803)"/>
<path d="M57.7808 24.4648C52.1765 22.5219 47.2802 14.4172 47.2802 14.4172C47.2802 14.4172 55.6271 16.3025 60.9086 18.5636C66.1901 20.8246 71.2403 29.2208 71.2403 29.2208C71.2403 29.2208 63.3851 26.4076 57.7808 24.4648Z" fill="url(#paint6_linear_16_26803)"/>
<path d="M60.969 42.5011C58.5775 37.0731 61.1819 27.9694 61.1819 27.9694C61.1819 27.9694 65.4825 35.3674 67.4211 40.7755C69.3598 46.1837 66.6467 55.5984 66.6467 55.5984C66.6467 55.5984 63.3606 47.9291 60.969 42.5011Z" fill="url(#paint7_linear_16_26803)"/>
<defs>
<linearGradient id="paint0_linear_16_26803" x1="6.27511" y1="18.4814" x2="13.9648" y2="45.5118" gradientUnits="userSpaceOnUse">
<stop stop-color="white"/>
<stop offset="0.3625" stop-color="#FDFDFD" stop-opacity="0.960417"/>
<stop offset="0.805208" stop-color="#EBEBEB" stop-opacity="0.473931"/>
<stop offset="1" stop-color="white" stop-opacity="0"/>
</linearGradient>
<linearGradient id="paint1_linear_16_26803" x1="2.34986" y1="45.5777" x2="26.4775" y2="59.987" gradientUnits="userSpaceOnUse">
<stop stop-color="white"/>
<stop offset="0.3625" stop-color="#FDFDFD" stop-opacity="0.960417"/>
<stop offset="0.805208" stop-color="#EBEBEB" stop-opacity="0.473931"/>
<stop offset="1" stop-color="white" stop-opacity="0"/>
</linearGradient>
<linearGradient id="paint2_linear_16_26803" x1="18.4555" y1="67.6586" x2="45.5871" y2="60.334" gradientUnits="userSpaceOnUse">
<stop stop-color="white"/>
<stop offset="0.3625" stop-color="#FDFDFD" stop-opacity="0.960417"/>
<stop offset="0.805208" stop-color="#EBEBEB" stop-opacity="0.473931"/>
<stop offset="1" stop-color="white" stop-opacity="0"/>
</linearGradient>
<linearGradient id="paint3_linear_16_26803" x1="45.9223" y1="71.5366" x2="58.9868" y2="46.6551" gradientUnits="userSpaceOnUse">
<stop stop-color="white"/>
<stop offset="0.3625" stop-color="#FDFDFD" stop-opacity="0.960417"/>
<stop offset="0.805208" stop-color="#EBEBEB" stop-opacity="0.473931"/>
<stop offset="1" stop-color="white" stop-opacity="0"/>
</linearGradient>
<linearGradient id="paint4_linear_16_26803" x1="27.736" y1="2.10198" x2="15.1114" y2="27.2096" gradientUnits="userSpaceOnUse">
<stop stop-color="white"/>
<stop offset="0.3625" stop-color="#FDFDFD" stop-opacity="0.960417"/>
<stop offset="0.805208" stop-color="#EBEBEB" stop-opacity="0.473931"/>
<stop offset="1" stop-color="white" stop-opacity="0"/>
</linearGradient>
<linearGradient id="paint5_linear_16_26803" x1="55.4355" y1="5.972" x2="28.2439" y2="13.0707" gradientUnits="userSpaceOnUse">
<stop stop-color="white"/>
<stop offset="0.3625" stop-color="#FDFDFD" stop-opacity="0.960417"/>
<stop offset="0.805208" stop-color="#EBEBEB" stop-opacity="0.473931"/>
<stop offset="1" stop-color="white" stop-opacity="0"/>
</linearGradient>
<linearGradient id="paint6_linear_16_26803" x1="71.8012" y1="28.1624" x2="46.9705" y2="15.0015" gradientUnits="userSpaceOnUse">
<stop stop-color="white"/>
<stop offset="0.3625" stop-color="#FDFDFD" stop-opacity="0.960417"/>
<stop offset="0.805208" stop-color="#EBEBEB" stop-opacity="0.473931"/>
<stop offset="1" stop-color="white" stop-opacity="0"/>
</linearGradient>
<linearGradient id="paint7_linear_16_26803" x1="67.8038" y1="55.289" x2="60.5431" y2="28.1402" gradientUnits="userSpaceOnUse">
<stop stop-color="white"/>
<stop offset="0.3625" stop-color="#FDFDFD" stop-opacity="0.960417"/>
<stop offset="0.805208" stop-color="#EBEBEB" stop-opacity="0.473931"/>
<stop offset="1" stop-color="white" stop-opacity="0"/>
</linearGradient>
</defs>
</svg>
